# xmcd
#
# Track frame offsets:
#	150
#	18037
#	49627
#	60967
#	74155
#	94547
#	137845
#	153155
#	170185
#	181462
#	195555
#	213472
#
# Disc length: 3222
#
# Revision: 2
# Processed by: cddbd v1.5.1PL0 Copyright (c) Steve Scherf et al.
# Submitted via: dBpowerAMP V4.0
# Normalized: r0:TSWAP
#
DISCID=a30c940c
DTITLE=Various Artist - The Best Of The Blues Singers - Vol II
DYEAR=1990
DGENRE=Blues
TTITLE0=T-Bone Walker and Muddy Waters - Come Baby
TTITLE1=Ray Charles - Come Rain Or Come Shine
TTITLE2=Muddy Waters - Portnoy's Blues
TTITLE3=Muddy Waters - Hootchie Cootchie Man
TTITLE4=Muddy Waters - So Long
TTITLE5=Muddy Waters - Kansas City
TTITLE6=Junior Parker - Love Ain't Nothin' But A Business Goin' On
TTITLE7=Junior Parker - Darlin' Depend On Me
TTITLE8=Joe Williams - Gee Baby Ain't I Good To You
TTITLE9=Joe Williams - Nobody Knows The Way I Feel This Mornin'
TTITLE10=Joe Turner - Joe Turner - Cherry Red
TTITLE11=Joe Turner - Joe Turner - Shake Rattle And Roll
EXTD=
EXTT0=
EXTT1=
EXTT2=
EXTT3=
EXTT4=
EXTT5=
EXTT6=
EXTT7=
EXTT8=
EXTT9=
EXTT10=
EXTT11=
PLAYORDER=
